# xmcd
#
# Track frame offsets: 
#        150
#        19830
#        30250
#        39715
#        56927
#        73107
#        82807
#        102142
#        122535
#        144120
#        158630
#        177110
#        193675
#        215065
#        231255
#        249120
#        260800
#        267137
#        281412
#
# Disc length: 4082 seconds
#
# Revision: 3
# Processed by: cddbd v1.4PL0 Copyright (c) Steve Scherf et al.
# Submitted via: ExactAudioCopy v0.95a3
#
DISCID=030ff013
DTITLE=Lead Belly - The Library Of Congress Recordings - Volume 4 - Th
DTITLE=e Titanic
DYEAR=1994
DGENRE=Blues
TTITLE0=Blind Lemon Blues
TTITLE1=Mister Tom Hughes' Town
TTITLE2=Shreveport Jail
TTITLE3=Don't You Love Me No More
TTITLE4=Henry Ford Blues
TTITLE5=Julie Ann Johnson
TTITLE6=Angola Blues (So Doggone Soon)
TTITLE7=Dallas and Fort Worth Blues
TTITLE8=Mary Don't You Weep
TTITLE9=Easy Mr. Tom
TTITLE10=I Ain't Bothered A Bit
TTITLE11=Boll Weevil
TTITLE12=The Titanic
TTITLE13=Red Cross Sto'
TTITLE14=Fo' Day Worry Blues
TTITLE15=Hesitation Blues
TTITLE16=Take Me Back
TTITLE17=Tight Like That
TTITLE18=Sail On Little Girl
EXTD=Library of Congress Recordings
EXTT0=
EXTT1=
EXTT2=
EXTT3=
EXTT4=
EXTT5=
EXTT6=
EXTT7=
EXTT8=
EXTT9=
EXTT10=
EXTT11=
EXTT12=
EXTT13=
EXTT14=
EXTT15=
EXTT16=
EXTT17=
EXTT18=
PLAYORDER=
